<?xml version="1.0" encoding="UTF-8"?>
<svg id="Layer_1" xmlns="http://www.w3.org/2000/svg" version="1.1" viewBox="0 0 566.93 566.93">
  <!-- Generator: Adobe Illustrator 29.5.1, SVG Export Plug-In . SVG Version: 2.1.0 Build 141)  -->
  <defs>
    <style>
      .st0 {
        fill: #db9127;
      }

      .st1 {
        fill: #ecf6fd;
      }

      .st2 {
        fill: #0075a3;
      }

      .st3 {
        fill: #06475b;
      }
    </style>
  </defs>
  <path class="st2" d="M283.47,525.51c-64.65,0-125.44-25.18-171.15-70.89-45.72-45.72-70.89-106.5-70.89-171.15s25.18-125.44,70.89-171.15c45.72-45.72,106.5-70.89,171.15-70.89s125.44,25.18,171.15,70.89c45.72,45.72,70.89,106.5,70.89,171.15s-25.18,125.44-70.89,171.15c-45.72,45.72-106.5,70.89-171.15,70.89Z"/>
  <path class="st3" d="M522.47,182.49c-13.06-30.89-31.77-58.63-55.59-82.45-23.82-23.82-51.56-42.52-82.45-55.58-31.99-13.53-65.96-20.39-100.97-20.39s-68.98,6.86-100.97,20.39c-30.89,13.07-58.63,31.77-82.45,55.58-23.82,23.82-42.52,51.56-55.58,82.45-13.53,31.99-20.39,65.96-20.39,100.97s6.86,68.98,20.39,100.97c13.06,30.89,31.77,58.63,55.58,82.45,23.82,23.82,51.56,42.52,82.45,55.59,31.99,13.53,65.96,20.39,100.97,20.39s68.98-6.86,100.97-20.39c30.89-13.07,58.63-31.77,82.45-55.59,23.82-23.82,42.52-51.56,55.59-82.45,13.53-31.99,20.39-65.96,20.39-100.97s-6.86-68.99-20.39-100.97ZM525.51,283.46c0,133.46-108.58,242.05-242.05,242.05S41.42,416.93,41.42,283.46,150,41.42,283.46,41.42s242.05,108.58,242.05,242.05Z"/>
  <g>
    <path class="st1" d="M471.69,203.07l-140.78,224.64c-.69,1.11-1.91,1.78-3.21,1.78h-88.94c-1.31,0-2.52-.67-3.22-1.78L95.24,203.06c-.61-.98.09-2.25,1.25-2.25h75.27c14.79,0,28.52,7.7,36.23,20.33l71.69,117.43c.65,1.06-.06,2.42-1.3,2.52-17.21,1.47-30.02,7.11-30.02,13.86,0,7.86,17.42,14.24,38.9,14.24s38.9-6.38,38.9-14.24c0-6.88-13.34-12.62-31.07-13.94-1.26-.09-1.98-1.47-1.31-2.54l73.23-117.64c7.75-12.45,21.38-20.02,36.04-20.02h67.39c1.16,0,1.86,1.27,1.25,2.25Z"/>
    <path class="st0" d="M345.87,193.09c-.03-.44-.06-.86-.1-1.3-.05-.66-.11-1.33-.19-1.99-.02-.23-.03-.45-.05-.68-.03-.19-.08-.37-.1-.55-.21-1.49-.45-2.97-.76-4.42-.06-.36-.16-.71-.24-1.05-.32-1.44-.7-2.87-1.13-4.26-.11-.32-.23-.65-.34-.99-.41-1.23-.86-2.45-1.34-3.66-.16-.41-.34-.83-.52-1.23-.5-1.15-1.04-2.27-1.6-3.39-.21-.39-.41-.79-.62-1.18-.62-1.15-1.3-2.27-1.98-3.37-.28-.44-.55-.88-.84-1.3-.7-1.05-1.43-2.06-2.19-3.06-.34-.44-.68-.88-1.02-1.3-.78-.96-1.59-1.9-2.43-2.82-.37-.41-.76-.79-1.13-1.2-.87-.89-1.77-1.77-2.69-2.59-.37-.36-.78-.7-1.18-1.04-.84-.71-1.7-1.43-2.58-2.09-.49-.39-.99-.75-1.49-1.1-.89-.65-1.81-1.26-2.74-1.86-.45-.28-.89-.57-1.34-.84-1.09-.65-2.17-1.25-3.29-1.81l-1.22-.63c-1.23-.58-2.48-1.13-3.74-1.64-.41-.16-.81-.32-1.22-.49-1.31-.49-2.64-.94-3.99-1.34-.37-.11-.76-.21-1.13-.32-1.41-.39-2.85-.73-4.29-1-.32-.06-.63-.11-.96-.18-1.54-.28-3.09-.5-4.67-.65-.19-.03-.41-.03-.6-.05-1.7-.15-3.4-.24-5.14-.24h-.1c-1.73,0-3.44.1-5.14.24-.19.02-.41.02-.6.05-1.57.15-3.13.37-4.68.65-.31.06-.62.11-.94.18-1.44.28-2.88.62-4.29,1-.37.11-.76.21-1.13.32-1.34.41-2.67.86-3.99,1.34-.41.16-.81.32-1.23.49-1.25.5-2.5,1.05-3.73,1.64l-1.22.63c-1.12.57-2.2,1.17-3.29,1.81-.45.28-.89.57-1.34.84-.92.6-1.85,1.22-2.74,1.86-.5.36-1,.71-1.49,1.1-.87.66-1.73,1.38-2.58,2.09-.41.34-.81.68-1.18,1.04-.92.83-1.81,1.7-2.69,2.59-.37.41-.76.79-1.13,1.2-.84.92-1.65,1.86-2.43,2.82-.34.42-.68.86-1.02,1.3-.76,1-1.49,2.01-2.19,3.06-.29.42-.57.86-.84,1.3-.7,1.1-1.36,2.22-1.98,3.37-.21.39-.41.79-.62,1.18-.57,1.12-1.1,2.24-1.6,3.39-.18.41-.36.83-.52,1.23-.49,1.22-.94,2.43-1.34,3.66-.11.34-.23.66-.34.99-.44,1.39-.81,2.82-1.13,4.26-.08.34-.18.7-.24,1.05-.31,1.46-.57,2.93-.76,4.42-.02.18-.06.36-.1.55-.02.23-.03.45-.06.68-.06.66-.13,1.33-.18,1.99-.03.44-.06.86-.1,1.3-.06,1.12-.1,2.24-.1,3.37,0,1.28.05,2.56.13,3.84.02.26.05.52.06.78.08,1.07.19,2.12.32,3.18.03.21.06.44.1.65.15,1.1.34,2.17.57,3.24.03.19.06.39.11.58.02.13.03.24.06.37v.02l.05.1c1.39,6.25,3.76,12.15,6.97,17.5l.39.65s.08.08.1.13l19.65,31.45.21.37,28.75,46.02s.34.55.34.55l.03.03c.29.29.7.47,1.15.47s.86-.18,1.15-.47l.03-.03s.34-.53.34-.55l28.75-46.02.21-.37,19.65-31.45s.06-.08.1-.13l.39-.65c3.21-5.35,5.57-11.25,6.97-17.5l.05-.1v-.02c.03-.13.05-.24.06-.37.05-.19.08-.39.11-.58.23-1.07.42-2.14.57-3.24.03-.21.06-.44.1-.65.13-1.05.24-2.11.32-3.18.02-.26.05-.52.06-.78.08-1.28.13-2.54.13-3.84,0-1.13-.03-2.25-.1-3.37ZM286.97,221.76c-13.97,0-25.31-11.33-25.31-25.29s11.34-25.33,25.31-25.33,25.31,11.34,25.31,25.33-11.34,25.29-25.31,25.29Z"/>
  </g>
</svg>